<?xml version="1.0" encoding="UTF-8"?>
<svg width="752pt" height="752pt" version="1.1" viewBox="0 0 752 752" xmlns="http://www.w3.org/2000/svg">
 <defs>
  <clipPath id="a">
   <path d="m139.21 139.21h473.58v473.58h-473.58z"/>
  </clipPath>
 </defs>
 <path d="m583.32 539.12-3.6836 6.3125-55.25-24.203 3.6836-5.7891z" fill="#ffd65b"/>
 <path d="m564.38 505.97 7.3672 3.1562-28.941 45.781-6.8438-3.1562z" fill="#ffd65b"/>
 <path d="m207.62 241.29c0 5.5234-5.418 10-12.102 10s-12.105-4.4766-12.105-10c0-5.5195 5.4219-9.9961 12.105-9.9961s12.102 4.4766 12.102 9.9961" fill="#ffd65b"/>
 <path d="m573.85 524.92-4.2109-3.6836c3.1562-2.6328 5.7891-4.7344 8.418-6.8398l4.2109 3.1562c-2.1016 2.1055-5.2578 4.7344-8.418 7.3672zm-173.64-4.7383-3.1562-3.6836c4.7344-3.1562 9.9961-9.9961 14.207-19.996l5.7891 1.5781c-5.2656 11.051-10.527 18.945-16.84 22.102zm-28.941-8.418c-5.2617-5.7891-11.051-13.156-15.785-22.102l5.2617-2.1055c4.7344 8.418 9.9961 15.785 15.262 21.047zm228.37-15.785-5.7891-2.1055c2.1055-4.7344 3.1562-9.4727 3.1562-14.207 0-3.1562-0.52734-6.3125-1.0508-8.9453l5.7891-1.0508c0.52734 2.6328 1.0508 5.7891 1.0508 9.4727 1.0547 6.3125-0.52344 11.574-3.1562 16.836zm-174.17-22.102-5.7891-1.0508c2.1055-7.3672 3.6836-15.785 5.2617-24.207l5.7891 0.52734c-1.5781 8.418-3.1562 16.836-5.2617 24.73zm-81.035-7.8945c-3.1562-7.8945-5.2617-16.312-7.3672-24.73l5.7891-1.0508c1.5781 7.8945 4.2109 16.312 7.3672 24.207zm245.73-18.414c-3.6836-6.8398-9.9961-12.629-17.891-18.941l4.2109-3.6836c8.418 6.8398 14.734 13.156 18.941 20.523zm-156.28-23.68-5.7891-0.52734c0.52734-8.418 1.0508-16.84 1.5781-24.73h5.7891c-0.52344 8.418-1.0508 17.363-1.5781 25.258zm-100.5-7.3672c-0.52734-3.6836-0.52734-7.8945-0.52734-11.578 0-3.1562 0-6.8398 0.52734-9.9961 0-1.0508 0-2.1055 0.52734-3.6836l5.7891 0.52734c0 1.0508 0 2.1055-0.52734 3.1562 0 3.1562-0.52734 6.8398-0.52734 9.9961 0 3.6836 0 7.3672 0.52734 11.578zm-74.719-4.7383-2.6328-4.7344c0.52734 0 0.52734-0.52734 1.0508-0.52734 4.7344-2.1055 6.8398-6.8398 6.8398-14.734v-4.2109l5.7891-0.52734v4.7344c0 6.3125-1.0508 14.734-9.9961 18.941 0 0.53516-0.52734 1.0586-1.0508 1.0586zm292.57-1.0508c-6.8398-6.8398-12.629-13.68-17.363-21.047l5.2617-2.1055c4.7344 6.8398 9.9961 13.68 16.84 19.996zm-324.14-3.1562c-7.8945-3.6836-16.84-8.9453-25.258-14.734l4.2109-3.6836c7.8945 5.7891 16.312 11.051 23.68 14.207zm201.54-33.676c-0.52734-8.418-1.5781-16.312-2.6328-24.73l5.7891-0.52734c1.5781 8.418 2.1055 16.84 2.6328 25.258zm-246.26-1.0547c-5.2617-7.3672-9.4727-15.262-12.102-23.68l5.7891-1.0508c2.6328 7.8945 6.3125 15.262 11.578 22.102zm161.54-5.7891-5.7891-1.0508c2.1055-7.3672 4.7344-15.262 8.418-24.207l5.7891 1.5781c-3.6797 8.9492-6.3125 16.312-8.418 23.68zm178.38-1.0508c-3.1562-9.9961-3.6836-17.891-3.6836-23.152v-2.1055h5.7891v2.1055c0 7.8945 1.0508 14.734 3.1562 22.102zm-262.05-3.1562c-1.5781-7.3672-3.1562-16.312-3.6836-25.258h5.7891c0.52734 8.418 2.1055 17.363 3.1562 24.73zm160.49-37.887c-2.1055-7.8945-4.2109-15.785-6.8398-24.207l5.7891-1.5781c2.6328 8.418 5.2617 16.312 7.3672 24.207zm-254.15-1.0547v-1.5781c0-7.3672 0.52734-15.785 2.1055-24.207l5.7891 0.52734c-1.5781 7.8945-2.1055 15.785-2.1055 23.152v1.0508zm195.22-4.207-5.7891-1.5781c2.6328-6.3125 3.6836-11.051 3.6836-15.262 0-2.6328-0.52734-5.2617-2.1055-7.3672l5.2617-2.1055c1.5781 2.6328 2.6328 5.7891 2.6328 9.4727 0.52734 4.7344-1.0508 9.9961-3.6836 16.84zm157.34-3.6836c-1.0508-6.8398-3.1562-13.68-7.3672-21.047l-1.0508-2.1055 5.2617-2.1055c0.52734 0.52734 1.0508 1.5781 1.0508 2.1055 4.7344 7.8945 7.3672 14.734 8.418 22.625zm-253.63-2.1055-5.7891-1.5781c2.6328-6.8398 6.8398-12.629 12.102-17.363 1.5781-1.5781 3.6836-2.6328 5.2617-4.2109l3.6836 3.6836c-1.5781 1.0508-3.1562 2.1055-4.7344 3.6836-4.7344 4.207-8.418 9.4688-10.523 15.785zm41.57-28.941-1.5781-4.7344c5.7891-1.0508 12.102-1.5781 17.891-1.5781 4.7344 0 8.9453 0.52734 13.156 1.0508l-1.0508 4.7344c-3.6836-0.52734-7.8945-1.0508-12.102-1.0508-5.2656 0-11.055 0.52734-16.316 1.5781zm97.871-7.8945c-3.6836-9.4727-6.3125-17.891-6.8398-24.73l5.7891-0.52734c0.52734 6.3125 3.1562 14.734 6.8398 23.68zm-223.63-1.5781-5.7891-1.5781c3.6836-11.051 8.418-20.523 11.578-24.207l4.7344 3.1562c-2.1055 2.6328-6.8398 11.055-10.523 22.629zm312.56-2.1055c-6.3125-5.7891-13.68-11.578-21.574-16.312l3.6836-4.2109c8.418 5.2617 15.785 11.051 22.625 17.363zm-47.359-28.941c-9.9961-3.6836-19.469-5.7891-26.836-5.7891h-1.0508v-4.7344h1.0508c8.418 0 18.418 2.1055 28.941 6.3125z" fill="#ffd65b"/>
 <g clip-path="url(#a)">
  <path d="m297.07 145 155.75 59.988 2.1055 0.52734 2.1055-0.52734 150.5-57.883v401.49l-152.6 58.406-155.75-59.988-2.1055-0.52344-2.1055 0.52734-150.49 57.879v-401.49l152.6-58.406m315.72-5.7891-157.86 60.512-157.86-60.512-157.86 60.512v413.07l157.86-60.512 157.86 60.512 157.86-60.512z" fill="#ffd65b"/>
 </g>
 <path d="m294.44 145h5.2617v407.28h-5.2617z" fill="#ffd65b"/>
 <path d="m452.3 199.72h5.2617v407.28h-5.2617z" fill="#ffd65b"/>
</svg>
